<svg width="38" height="48" fill="none" xmlns="http://www.w3.org/2000/svg"><path d="M24.558 11.341A8.23 8.23 0 0027.25 5.25V1.5A1.5 1.5 0 0025.276.077l-2.748.916a11.231 11.231 0 01-7.056 0L12.724.077A1.5 1.5 0 0010.75 1.5v3.75a8.23 8.23 0 002.692 6.091C5.808 13.715.25 20.846.25 29.25v12.563A6.194 6.194 0 006.438 48h25.125a6.194 6.194 0 006.187-6.188V29.25c0-8.404-5.558-15.535-13.192-17.909zM13.75 5.25V3.581l.773.258a14.25 14.25 0 008.954 0l.773-.258V5.25A5.256 5.256 0 0119 10.5a5.256 5.256 0 01-5.25-5.25zm21 36.563A3.191 3.191 0 0131.562 45H6.438a3.191 3.191 0 01-3.187-3.188V29.25c0-8.685 7.065-15.75 15.75-15.75 8.685 0 15.75 7.065 15.75 15.75v12.563z" fill="#FF5A30"/><path d="M19 27.75c-1.654 0-3-1.346-3-3s1.346-3 3-3 3 1.346 3 3a1.5 1.5 0 003 0 6.01 6.01 0 00-4.5-5.81V18a1.5 1.5 0 00-3 0v.94a6.01 6.01 0 00-4.5 5.81c0 3.308 2.692 6 6 6 1.654 0 3 1.346 3 3s-1.346 3-3 3-3-1.346-3-3a1.5 1.5 0 00-3 0 6.01 6.01 0 004.5 5.81v.94a1.5 1.5 0 003 0v-.94a6.01 6.01 0 004.5-5.81c0-3.308-2.692-6-6-6z" fill="#FF5A30"/></svg>