<?xml version="1.0" encoding="utf-8"?><svg viewBox="0 0 800 800" xmlns="http://www.w3.org/2000/svg" xmlns:xlink="http://www.w3.org/1999/xlink"><style>:root>svg{display:none}:root>svg:target{display:block}</style><svg viewBox="0 0 24 24" id="Facebook-social" xmlns="http://www.w3.org/2000/svg"><path d="M17.563 1.005 14.786 1c-3.12 0-5.137 2.125-5.137 5.414v2.497H6.857c-.242 0-.437.2-.437.448v3.617c0 .248.196.449.437.449h2.792v9.126c0 .248.195.449.437.449h3.643a.443.443 0 0 0 .437-.449v-9.126h3.265c.241 0 .436-.2.436-.449l.002-3.617a.456.456 0 0 0-.128-.317.431.431 0 0 0-.31-.131h-3.265V6.794c0-1.017.236-1.533 1.525-1.533h1.871c.241 0 .437-.202.437-.45V1.454a.443.443 0 0 0-.436-.448Z"/></svg><svg viewBox="0 0 20 20" id="Linked-In" xmlns="http://www.w3.org/2000/svg"><path d="m18.328 18.333.005-.001v-6.113c0-2.99-.644-5.293-4.14-5.293-1.68 0-2.808.922-3.269 1.796h-.048V7.205H7.56v11.127h3.451v-5.51c0-1.45.275-2.853 2.072-2.853 1.77 0 1.797 1.655 1.797 2.946v5.418h3.447ZM1.941 7.206h3.456v11.127H1.94V7.206ZM3.667 1.666a2.002 2.002 0 0 0-2.001 2.001c0 1.105.897 2.02 2.001 2.02 1.105 0 2.002-.915 2.002-2.02a2.003 2.003 0 0 0-2.002-2.001Z"/></svg><svg viewBox="0 0 24 24" id="Messanger-social" xmlns="http://www.w3.org/2000/svg"><path d="M12 2C6.478 2 2 6.145 2 11.259c0 2.913 1.454 5.512 3.726 7.21V22l3.405-1.869c.909.252 1.871.388 2.869.388 5.523 0 10-4.145 10-9.259C22 6.146 17.523 2 12 2Zm.994 12.469-2.546-2.716-4.97 2.716 5.467-5.803 2.609 2.716 4.906-2.716-5.466 5.803Z"/></svg><svg viewBox="0 0 24 24" id="Twitter-social" xmlns="http://www.w3.org/2000/svg"><path d="M22.5 5.772a8.902 8.902 0 0 1-2.474.65 4.18 4.18 0 0 0 1.894-2.28 8.922 8.922 0 0 1-2.737 1 4.387 4.387 0 0 0-3.145-1.302c-2.379 0-4.308 1.847-4.308 4.124 0 .323.038.638.112.94-3.58-.173-6.754-1.815-8.879-4.31a3.962 3.962 0 0 0-.583 2.073c0 1.431.762 2.694 1.916 3.433a4.455 4.455 0 0 1-1.95-.518v.052c0 1.997 1.485 3.665 3.454 4.044-.36.093-.741.145-1.135.145a4.31 4.31 0 0 1-.81-.077c.548 1.64 2.138 2.832 4.023 2.865a8.89 8.89 0 0 1-5.35 1.763c-.348 0-.69-.02-1.028-.057a12.572 12.572 0 0 0 6.603 1.856c7.925 0 12.257-6.285 12.257-11.736l-.015-.534a8.412 8.412 0 0 0 2.155-2.13Z"/></svg><svg viewBox="0 0 24 24" id="WhatsApp-social" xmlns="http://www.w3.org/2000/svg"><path d="M22 11.742c0 5.381-4.395 9.743-9.818 9.743a9.835 9.835 0 0 1-4.746-1.212L2 22l1.772-5.227a9.64 9.64 0 0 1-1.409-5.03C2.363 6.361 6.76 2 12.182 2 17.605 2 22 6.362 22 11.742Zm-9.818-8.19c-4.552 0-8.255 3.674-8.255 8.19 0 1.793.584 3.452 1.573 4.803l-1.032 3.042 3.172-1.009a8.25 8.25 0 0 0 4.542 1.355c4.551 0 8.255-3.674 8.255-8.19 0-4.517-3.703-8.191-8.255-8.191Zm4.958 10.434c-.06-.1-.221-.16-.462-.278-.24-.12-1.424-.698-1.644-.777-.22-.08-.382-.12-.542.12-.16.238-.621.776-.762.935-.14.16-.28.18-.522.06-.24-.119-1.015-.371-1.935-1.185-.715-.633-1.198-1.414-1.339-1.653-.14-.24-.014-.368.106-.487.108-.107.24-.279.361-.418.12-.14.16-.24.24-.399.081-.16.041-.298-.02-.418-.06-.12-.541-1.295-.742-1.773-.2-.478-.4-.398-.541-.398-.14 0-.3-.02-.461-.02-.16 0-.422.06-.642.299-.22.239-.842.816-.842 1.991 0 1.175.862 2.31.982 2.47.12.159 1.665 2.649 4.111 3.605 2.447.956 2.447.637 2.889.597.44-.04 1.423-.578 1.625-1.135.2-.558.2-1.036.14-1.136Z"/></svg><svg viewBox="0 0 24 24" id="YouTube-social"><path fill-rule="evenodd" clip-rule="evenodd" d="M21.39 4.114a3.007 3.007 0 0 1 2.116 2.115c.514 1.878.494 5.792.494 5.792s0 3.895-.494 5.773a3.007 3.007 0 0 1-2.116 2.115c-1.878.495-9.39.495-9.39.495s-7.493 0-9.39-.514a3.007 3.007 0 0 1-2.116-2.116C0 15.916 0 12.001 0 12.001S0 8.107.494 6.23A3.068 3.068 0 0 1 2.61 4.094C4.488 3.6 12 3.6 12 3.6s7.513 0 9.391.514Zm-5.535 7.888L9.608 15.6V8.404l6.247 3.598Z"/></svg><svg fill="none" viewBox="0 0 24 24" id="arrow-right-pag" xmlns="http://www.w3.org/2000/svg"><path fill-rule="evenodd" clip-rule="evenodd" d="M14.793 6.793a1 1 0 0 1 1.414 0l4.5 4.5a1 1 0 0 1 0 1.414l-4.5 4.5a1 1 0 0 1-1.414-1.414L17.586 13H4a1 1 0 1 1 0-2h13.586l-2.793-2.793a1 1 0 0 1 0-1.414Z" fill="#424551"/></svg><svg fill="none" viewBox="0 0 24 24" id="arrow-up" xmlns="http://www.w3.org/2000/svg"><path fill-rule="evenodd" clip-rule="evenodd" d="M4.293 15.707a1 1 0 0 1 0-1.414l7-7a1 1 0 0 1 1.414 0l7 7a1 1 0 0 1-1.414 1.414L12 9.414l-6.293 6.293a1 1 0 0 1-1.414 0Z" fill="#fff"/></svg><svg viewBox="0 0 24 24" id="gudok" xmlns="http://www.w3.org/2000/svg"><path d="M11.843 3.987 7.093 9H4.5A1.5 1.5 0 0 0 3 10.5v3A1.5 1.5 0 0 0 4.5 15h2.593l4.75 5.013a1.25 1.25 0 0 0 2.157-.86V4.847a1.25 1.25 0 0 0-2.157-.86zM5 13v-2h2.953L12 6.729V17.27L7.953 13H5zm15.071 6.07a1 1 0 1 1-1.414-1.413A7.97 7.97 0 0 0 21 12a7.97 7.97 0 0 0-2.343-5.656 1 1 0 1 1 1.415-1.415A9.97 9.97 0 0 1 23 12a9.97 9.97 0 0 1-2.929 7.072zm-3.673-3.269a1 1 0 0 0 1.4-.198A5.978 5.978 0 0 0 19 12a5.977 5.977 0 0 0-1.197-3.596 1 1 0 0 0-1.6 1.2c.515.686.797 1.518.797 2.396 0 .88-.284 1.713-.8 2.401a1 1 0 0 0 .198 1.4z"/></svg><svg fill="none" viewBox="0 0 16 14" id="heart-footer" xmlns="http://www.w3.org/2000/svg"><path fill-rule="evenodd" clip-rule="evenodd" d="M8 12.271C4.932 10.525 3.222 8.79 2.395 7.284c-.846-1.542-.772-2.84-.303-3.761.966-1.894 3.71-2.5 5.383-.384L8 3.8l.523-.661c1.673-2.116 4.418-1.51 5.383.384.47.921.544 2.22-.303 3.76-.826 1.507-2.537 3.242-5.603 4.988ZM8 1.737C5.645-.498 2.175.426.904 2.917.208 4.285.2 6.052 1.228 7.925c1.019 1.857 3.052 3.817 6.449 5.694l.322.179.323-.179c3.397-1.877 5.43-3.837 6.45-5.694 1.028-1.873 1.018-3.64.321-5.008C13.823.425 10.353-.498 8 1.737Z" fill="#FF5A30"/></svg><svg viewBox="0 0 48 48" id="ic-construction" xmlns="http://www.w3.org/2000/svg"><path d="M46.594 25.406c.776 0 1.406-.63 1.406-1.406V13.5c0-.777-.63-1.406-1.406-1.406H25.406V3c0-.777-.63-1.406-1.406-1.406H9c-.777 0-1.406.63-1.406 1.406v9.094H1.406C.63 12.094 0 12.724 0 13.5V24c0 .777.63 1.406 1.406 1.406h6.188v7.688H1.406C.63 33.094 0 33.724 0 34.5V45c0 .777.63 1.406 1.406 1.406h45.188c.776 0 1.406-.63 1.406-1.406V34.5c0-.777-.63-1.406-1.406-1.406h-6.188v-7.688h6.188Zm-1.407-2.812h-12.28v-7.688h12.28v7.688Zm-15.093 0H17.906v-7.688h12.188v7.688ZM10.406 4.406h12.188v7.688H10.406V4.406ZM2.812 22.594v-7.688h12.282v7.688H2.813Zm7.594 2.812h12.188v7.688H10.406v-7.688Zm-7.594 10.5h12.282v7.688H2.813v-7.688Zm15.094 0h12.188v7.688H17.906v-7.688Zm27.282 0v7.688H32.906v-7.688h12.282Zm-7.594-2.812H25.406v-7.688h12.188v7.688Z"/></svg><svg viewBox="0 0 48 48" id="ic-house" xmlns="http://www.w3.org/2000/svg"><g clip-path="url(#ga)"><path d="M28.922 21.094c-1.957 0-3.657.891-4.922 2.58-1.266-1.689-2.965-2.58-4.922-2.58-3.655 0-6.328 3.004-6.328 6.69 0 4.766 4.619 7.76 10.335 12.659a1.402 1.402 0 0 0 1.83 0c5.723-4.905 10.335-7.895 10.335-12.659 0-3.683-2.67-6.69-6.328-6.69ZM24 37.529c-5.15-4.351-8.438-6.697-8.438-9.745 0-2.21 1.512-3.878 3.516-3.878 2.606 0 3.529 3.06 3.57 3.198a1.407 1.407 0 0 0 2.706-.006c.009-.032.924-3.192 3.568-3.192 2.004 0 3.515 1.667 3.515 3.878 0 3.05-3.291 5.398-8.437 9.745Z"/><path d="M46.593 45.188h-4.218V23.345l.024.017a1.406 1.406 0 0 0 1.944-.299l3.376-4.499a1.41 1.41 0 0 0-.302-1.984L24.83.272a1.406 1.406 0 0 0-1.656-.003l-9.111 6.579V4.22c0-.777-.63-1.407-1.407-1.407H7.031c-.776 0-1.406.63-1.406 1.407v8.72L.583 16.58a1.406 1.406 0 0 0-.301 1.984l3.375 4.499a1.406 1.406 0 0 0 1.944.299l.024-.017v21.843H1.406a1.406 1.406 0 1 0 0 2.813h45.187a1.406 1.406 0 0 0 0-2.813ZM8.437 5.626h2.813v3.253l-2.813 2.03V5.626ZM5.082 20.274l-1.69-2.252L24 3.142l20.61 14.88-1.69 2.252L24.822 7.298a1.406 1.406 0 0 0-1.645 0c-.319.23-17.694 12.688-18.096 12.976Zm3.356 1.054C18.767 13.92 22.587 11.183 24 10.168c1.91 1.37 7.12 5.107 15.563 11.16v23.86H8.436v-23.86Z"/></g><defs><clipPath id="ga"><path d="M0 0h48v48H0z"/></clipPath></defs></svg><svg viewBox="0 0 48 48" id="ic-painting" xmlns="http://www.w3.org/2000/svg"><path d="M39.563 4.219A4.224 4.224 0 0 0 35.343 0H7.22A4.224 4.224 0 0 0 3 4.219v8.437a4.224 4.224 0 0 0 4.219 4.219h28.125a4.224 4.224 0 0 0 4.218-4.219V11.25h1.407c.775 0 1.406.631 1.406 1.406v5.625c0 .776-.631 1.407-1.406 1.407H24.094a4.224 4.224 0 0 0-4.219 4.218v4.219h-1.406c-.777 0-1.407.63-1.407 1.406v5.549l-1.406 5.715C14.742 44.453 17.506 48 21.281 48c3.778 0 6.539-3.55 5.627-7.2L25.5 35.08V29.53c0-.776-.63-1.406-1.406-1.406h-1.407v-4.219c0-.775.631-1.406 1.407-1.406h16.875a4.224 4.224 0 0 0 4.218-4.219v-5.625a4.224 4.224 0 0 0-4.218-4.219h-1.407V4.22ZM22.686 30.937v2.907h-2.812v-2.907h2.813Zm-1.406 14.25a2.985 2.985 0 0 1-2.895-3.714l1.185-4.817h3.42l1.187 4.822a2.985 2.985 0 0 1-2.897 3.71ZM7.22 2.813h28.125c.775 0 1.406.63 1.406 1.406v1.406h-4.219c-1.366 0-3.114.512-5.138 1.104-2.733.801-5.83 1.708-8.924 1.708-3.016 0-5.142-.88-7.017-1.657-1.434-.594-2.789-1.155-4.233-1.155H5.812V4.219c0-.776.631-1.407 1.407-1.407Zm29.531 9.843c0 .775-.631 1.406-1.406 1.406H7.219a1.408 1.408 0 0 1-1.407-1.406V8.437H7.22c.885 0 1.888.416 3.157.941 2.013.834 4.518 1.872 8.093 1.872 3.497 0 6.944-1.01 9.715-1.821 1.74-.51 3.384-.992 4.347-.992h4.219v4.22Z"/></svg><svg viewBox="0 0 48 48" id="ic-pantone" xmlns="http://www.w3.org/2000/svg"><g clip-path="url(#ia)"><path d="M9.938 33.844a4.224 4.224 0 0 0-4.22 4.218 4.224 4.224 0 0 0 4.22 4.22 4.223 4.223 0 0 0 4.218-4.22 4.223 4.223 0 0 0-4.219-4.218Zm0 5.625a1.408 1.408 0 0 1 0-2.813c.775 0 1.406.631 1.406 1.407 0 .775-.631 1.406-1.406 1.406Z"/><path d="M45.462 28.569a4.22 4.22 0 0 0 .264-4.62l-5.623-9.831c-.972-1.684-3.023-2.453-4.852-1.964a4.227 4.227 0 0 0-2.009-4.573L23.5 1.957a4.222 4.222 0 0 0-4.334.07A4.22 4.22 0 0 0 15.562 0H4.22A4.224 4.224 0 0 0 0 4.219V43.78A4.224 4.224 0 0 0 4.219 48H43.78A4.224 4.224 0 0 0 48 43.781V32.438a4.224 4.224 0 0 0-2.538-3.869ZM16.969 43.781c0 .776-.631 1.407-1.407 1.407H4.22c-.776 0-1.407-.631-1.407-1.407v-12.75H16.97v12.75Zm0-15.562H2.812V16.875H16.97v11.344Zm0-14.157H2.812V4.22c0-.776.631-1.407 1.407-1.407h11.343c.776 0 1.407.631 1.407 1.407v9.843Zm2.812-8.477.391-.678a1.408 1.408 0 0 1 1.922-.515l9.742 5.625c.672.388.903 1.25.514 1.923l-1.625 2.825c-.04.06-.077.122-.108.187L19.78 33.787V5.584Zm0 33.842 13.146-22.85 2.718-1.57c.69-.397 1.634-.156 2.02.512l5.622 9.832a1.411 1.411 0 0 1-.518 1.93c-1.005.58-21.999 12.735-22.988 13.308v-1.162Zm25.407 4.354c0 .776-.631 1.407-1.407 1.407H19.54c.15-.423.234-.877.24-1.349l22.124-12.808h1.878c.776 0 1.407.631 1.407 1.407V43.78Z"/></g><defs><clipPath id="ia"><path d="M0 0h48v48H0z"/></clipPath></defs></svg><svg viewBox="0 0 48 48" id="ic-plan" xmlns="http://www.w3.org/2000/svg"><path d="M42.375 2.906a5.628 5.628 0 0 0-4.87 2.813H1.406C.63 5.719 0 6.349 0 7.125v36.563c0 .776.63 1.406 1.406 1.406h40.969A5.631 5.631 0 0 0 48 39.469V8.53a5.631 5.631 0 0 0-5.625-5.625Zm0 39.375H2.812V8.531H36.75V39.47a1.406 1.406 0 0 0 2.813 0 2.816 2.816 0 0 1 2.812-2.813 2.816 2.816 0 0 1 2.813 2.813 2.816 2.816 0 0 1-2.813 2.812Zm2.813-7.682a5.591 5.591 0 0 0-2.813-.755 5.591 5.591 0 0 0-2.813.755V8.53a2.816 2.816 0 0 1 2.813-2.812 2.816 2.816 0 0 1 2.813 2.812V34.6Z"/><path d="M32.438 11.344H7.125c-.777 0-1.406.63-1.406 1.406v25.313c0 .776.63 1.406 1.406 1.406h14.063a1.406 1.406 0 0 0 1.406-1.407V35.25a4.226 4.226 0 0 1 2.812-3.978v6.79c0 .777.63 1.407 1.407 1.407h5.625c.776 0 1.406-.63 1.406-1.407V12.75c0-.777-.63-1.406-1.407-1.406ZM31.03 36.656H28.22v-7.031c0-.777-.63-1.406-1.407-1.406a7.04 7.04 0 0 0-7.03 7.031v1.406H8.531V28.22h5.624v4.218a1.406 1.406 0 0 0 2.813 0v-5.624c0-.777-.63-1.407-1.407-1.407h-7.03v-11.25h8.437v5.625H12.75a1.406 1.406 0 0 0 0 2.813H24a1.406 1.406 0 0 0 0-2.813h-4.219v-5.625h11.25v22.5Z"/></svg><svg viewBox="0 0 22 20" id="load-more" xmlns="http://www.w3.org/2000/svg"><path fill-rule="evenodd" clip-rule="evenodd" d="M1.1 0a1 1 0 0 1 1 1v4.436A9.999 9.999 0 0 1 11 0c4.355 0 8.058 2.784 9.43 6.667a1 1 0 1 1-1.885.666A8.004 8.004 0 0 0 4.07 6H7.1a1 1 0 1 1 0 2h-6a1 1 0 0 1-1-1V1a1 1 0 0 1 1-1ZM2.177 12.057a1 1 0 0 1 1.276.61A8.004 8.004 0 0 0 17.928 14h-3.03a1 1 0 1 1 0-2h6a1 1 0 0 1 1 1v6a1 1 0 1 1-2 0v-4.436a9.999 9.999 0 0 1-8.9 5.436c-4.356 0-8.059-2.784-9.43-6.667a1 1 0 0 1 .609-1.276Z"/></svg><svg viewBox="0 0 16 17" id="share-arrow"><path d="m.667 7.828 6.096-6.662v3.975h1.295c4.019 0 7.276 3.247 7.276 7.252v2.106l-.576-.628a10.344 10.344 0 0 0-7.629-3.355h-.366v3.974L.667 7.828Z"/></svg><svg viewBox="0 0 1024 1024" class="oicon" id="svg-test" xmlns="http://www.w3.org/2000/svg"><path d="M703.906 865.906 663.97 850.25l148.687-380.063c6.844-17.53-2.437-37.312-20.343-43.125L532.25 342.125c-16.688-5.438-34.688 3.188-40.875 19.594l-129.563 342.75-61.406-23.157 181.875-481.125c6.094-16.218 23.813-24.843 40.406-19.78L911.75 300.593c18.188 5.625 27.844 25.5 20.906 43.312L733.531 852.97c-4.687 11.718-17.906 17.531-29.625 12.937z" fill="#360682"/><path d="M111.68799999999999 658.156a129.375 129.375 0 1 0 258.75 0 129.375 129.375 0 1 0-258.75 0ZM485 802.906a129.375 129.375 0 1 0 258.75 0 129.375 129.375 0 1 0-258.75 0Z" fill="#360682"/><path d="m246.533 379.367-104.1-260.7c-6.8-16.9 2.4-36 19.8-41.3l107.9-32.9c14.4-4.4 29.7 2.5 36 16.2l13.2 28.8c7.5 16.3-.9 35.4-17.9 41l-73.7 24.3c-6.9 2.3-10.5 9.9-7.8 16.6l70.4 179.6c2.1 5.4-.5 11.4-5.9 13.6l-37.9 14.8z" fill="#E51C5A"/><path d="M126.733 379.367a84.8 84.8 0 1 0 169.6 0 84.8 84.8 0 1 0-169.6 0Z" fill="#E51C5A"/></svg></svg>